PathFileType	4	(X/Y/Z)	output.trc
DataRate	CameraRate	NumFrames	NumMarkers	Units	OrigDataRate	OrigDataStartFrame	OrigNumFrames
120	120	9	18	mm	120	2117	1
Frame#	Time	K4ABT_JOINT_PELVISx			K4ABT_JOINT_SPINE_NAVEL			T8			C7			K4ABT_JOINT_CLAVICLE_LEFT			K4ABT_JOINT_SHOULDER_LEFT			K4ABT_JOINT_ELBOW_LEFT			K4ABT_JOINT_WRIST_LEFT			K4ABT_JOINT_HAND_LEFT			K4ABT_JOINT_HANDTIP_LEFT			K4ABT_JOINT_THUMB_LEFT			K4ABT_JOINT_CLAVICLE_RIGHT			GH			Elbow_Midpoint			Wrist_Midpointx			K4ABT_JOINT_HAND_RIGHT			K4ABT_JOINT_HANDTIP_RIGHT			K4ABT_JOINT_THUMB_RIGHTx
		X1	Y1	Z1	X2	Y2	Z2	X3	Y3	Z3	X4	Y4	Z4	X5	Y5	Z5	X6	Y6	Z6	X7	Y7	Z7	X8	Y8	Z8	X9	Y9	Z9	X10	Y10	Z10	X11	Y11	Z11	X12	Y12	Z12	X13	Y13	Z13	X14	Y14	Z14	X15	Y15	Z15	X16	Y16	Z16	X17	Y17	Z17	X18	Y18	Z18
2117	26.795654	-249.202886	-239.957312	1552.624810	283.666252	-89.181312	1516.642742	307.642784	31.789461	1486.564259	293.061643	217.027852	1433.417094	290.027862	194.402028	1470.563668	254.401077	202.922068	1592.758470	118.211547	22.270278	1689.573429	-26.241952	-123.925169	1671.505826	-7.500059	-208.488980	1669.957663	28.776492	-295.697342	1689.218797	-0.092811	-240.265145	1674.077657	302.711286	178.707201	1414.268200	307.326985	123.606607	1311.134319	184.723658	-94.242395	1322.144493	49.214390	-244.163244	1370.268835	-18.153611	-296.433995	1349.324909	-92.424208	-348.256720	1325.159076	-27.040553	-293.845104	1340.155711
2118	26.803953	-249.649784	-240.247774	1553.418744	284.352650	-89.573388	1516.384499	308.247672	31.378421	1485.523552	293.377738	217.039285	1433.070772	290.972667	194.300752	1470.251523	256.975111	202.227882	1593.087031	120.813778	21.978170	1691.476960	-25.182264	-123.109517	1674.682482	-7.054119	-207.882489	1671.451065	28.779861	-295.877869	1688.537621	-0.084955	-240.100735	1674.256158	302.505055	178.683588	1413.624128	305.557652	123.644772	1310.261452	178.837514	-91.956142	1323.754568	40.170051	-238.178420	1376.221625	-25.938530	-289.229001	1348.375877	-99.548107	-341.724581	1322.889163	-33.163776	-287.053613	1336.809817
2119	26.812252	-250.812130	-241.081850	1555.005032	285.519908	-90.236764	1516.613214	308.933795	30.962156	1484.789848	293.998087	217.484241	1433.230290	292.363793	194.538116	1470.458602	260.101057	200.918480	1594.066201	123.466635	20.898444	1694.083583	-25.489384	-121.802892	1677.999987	-7.271984	-206.545867	1673.384783	28.645836	-295.091764	1687.771030	-0.607968	-239.037722	1674.567553	302.390906	179.039085	1413.396871	303.236557	123.817412	1309.783519	171.277762	-89.102635	1325.691931	29.330227	-231.788723	1381.718941	-35.083907	-280.467591	1346.895588	-109.315848	-332.936505	1322.671838	-41.549125	-277.879698	1334.067665
2120	26.820551	-251.974476	-241.915926	1556.591321	286.687167	-90.900140	1516.841929	309.619919	30.545892	1484.056145	294.618435	217.929197	1433.389808	293.754919	194.775481	1470.665682	263.227002	199.609077	1595.045371	126.119491	19.818718	1696.690205	-25.796505	-120.496268	1681.317491	-7.489849	-205.209245	1675.318500	28.511810	-294.305658	1687.004439	-1.130981	-237.974708	1674.878948	302.276757	179.394583	1413.169614	300.915463	123.990051	1309.305585	163.718010	-86.249128	1327.629293	18.490402	-225.399026	1387.216257	-44.229285	-271.706182	1345.415298	-119.083590	-324.148429	1322.454513	-49.934474	-268.705783	1331.325513
2121	26.828850	-253.136822	-242.750002	1558.177610	287.854425	-91.563516	1517.070644	310.306043	30.129628	1483.322441	295.238784	218.374153	1433.549326	295.146045	195.012845	1470.872761	266.352947	198.299674	1596.024541	128.772347	18.738993	1699.296828	-26.103625	-119.189643	1684.634996	-7.707714	-203.872623	1677.252218	28.377784	-293.519553	1686.237848	-1.653994	-236.911695	1675.190342	302.162607	179.750080	1412.942357	298.594368	124.162690	1308.827651	156.158257	-83.395621	1329.566656	7.650578	-219.009329	1392.713573	-53.374663	-262.944772	1343.935009	-128.851332	-315.360353	1322.237188	-58.319822	-259.531868	1328.583360
2122	26.837149	-254.412762	-243.684750	1559.716271	289.013123	-92.234310	1517.316246	310.913030	29.773995	1482.664285	295.909996	218.962302	1433.840562	296.562410	195.368124	1471.204321	269.351310	196.849408	1597.110300	131.232688	17.439206	1701.960397	-26.927833	-117.659762	1687.759899	-8.161398	-202.287688	1679.168593	28.167839	-292.408306	1685.505880	-2.354452	-235.593237	1675.538716	302.082029	180.245825	1412.836045	296.299514	124.428181	1308.474843	148.670592	-80.505608	1331.359046	-3.227007	-212.469032	1397.598968	-62.633766	-253.953546	1342.415330	-139.063160	-305.942530	1322.195081	-67.243336	-249.983654	1326.144209
2123	26.845447	-256.061646	-244.950020	1561.098567	290.143717	-92.929458	1517.617289	311.260196	29.617425	1482.254165	296.748197	220.020574	1434.564251	298.061637	196.110535	1471.944572	271.930801	194.936667	1598.546006	133.060969	15.416923	1704.810932	-29.449723	-115.396896	1690.252456	-9.389317	-199.887501	1681.028029	27.708635	-290.229563	1684.887583	-3.637492	-233.436114	1676.008499	302.111668	181.202023	1413.126815	294.090814	124.998515	1308.532842	141.419598	-77.495743	1332.675469	-14.228562	-205.434288	1400.475326	-72.266252	-244.207798	1340.766329	-150.732994	-294.457143	1322.728239	-77.933732	-239.206555	1324.699859
2124	26.853746	-257.710530	-246.215289	1562.480863	291.274311	-93.624606	1517.918332	311.607363	29.460856	1481.844045	297.586398	221.078846	1435.287939	299.560864	196.852946	1472.684822	274.510292	193.023926	1599.981713	134.889250	13.394640	1707.661466	-31.971612	-113.134029	1692.745013	-10.617235	-197.487314	1682.887466	27.249431	-288.050819	1684.269286	-4.920532	-231.278991	1676.478283	302.141308	182.158221	1413.417584	291.882113	125.568849	1308.590841	134.168604	-74.485879	1333.991892	-25.230117	-198.399544	1403.351683	-81.898738	-234.462049	1339.117328	-162.402829	-282.971756	1323.261398	-88.624129	-228.429456	1323.255509
2125	26.862045	-259.359415	-247.480559	1563.863158	292.404905	-94.319754	1518.219375	311.954529	29.304287	1481.433924	298.424600	222.137118	1436.011628	301.060092	197.595357	1473.425072	277.089782	191.111185	1601.417419	136.717532	11.372357	1710.512001	-34.493502	-110.871163	1695.237571	-11.845154	-195.087127	1684.746903	26.790228	-285.872076	1683.650989	-6.203571	-229.121868	1676.948066	302.170948	183.114419	1413.708354	289.673413	126.139183	1308.648839	126.917610	-71.476014	1335.308314	-36.231673	-191.364800	1406.228041	-91.531224	-224.716300	1337.468327	-174.072664	-271.486370	1323.794557	-99.314525	-217.652358	1321.811159
